# xmcd CD database file
#
# Track frame offsets:
#	225
#	19864
#	42568
#	58336
#	78959
#	99941
#	119717
#	138092
#	158138
#	177929
#	197855
#	218240
#
# Disc length: 3140 seconds
#
# Revision: 0
# Processed by: cddbd v1.5.2PL0 Copyright (c) Steve Scherf et al.
# Submitted via: CDex 1.60beta1
#
DISCID=aa0c410c
DTITLE=Mr. Acker Bilk - At the Movies
DYEAR=2006
DGENRE=Jazz
TTITLE0=Love is a Many Splendoured Thing
TTITLE1=Over the Rainbow
TTITLE2=Three Coins in the Fountain
TTITLE3=Where Do I Begin (Love Story)
TTITLE4=Lady in Red
TTITLE5=All the Way
TTITLE6=Can You Feel the Love Tonight
TTITLE7=Hello Dolly
TTITLE8=Unchained Melody
TTITLE9=Up Where We Belong
TTITLE10=You'll Never Know
TTITLE11=When You Wish Upon a Star
EXTD=YEAR: 2006
EXTT0=
EXTT1=
EXTT2=
EXTT3=
EXTT4=
EXTT5=
EXTT6=
EXTT7=
EXTT8=
EXTT9=
EXTT10=
EXTT11=
PLAYORDER=
